<mxfile host="Electron" agent="Mozilla/5.0 (Windows NT 10.0; Win64; x64) AppleWebKit/537.36 (KHTML, like Gecko) draw.io/26.1.1 Chrome/132.0.6834.210 Electron/34.3.3 Safari/537.36" version="26.1.1">
  <diagram name="Page-1" id="nIYw_wpFY0FooYuryY_H">
    <mxGraphModel dx="2333" dy="2480" grid="1" gridSize="10" guides="1" tooltips="1" connect="1" arrows="1" fold="1" page="1" pageScale="1" pageWidth="850" pageHeight="1100" math="0" shadow="0">
      <root>
        <mxCell id="0" />
        <mxCell id="1" parent="0" />
        <mxCell id="82BlO1FGrJN9hplA6FB--6" value="Generate Planet" style="edgeStyle=orthogonalEdgeStyle;rounded=0;orthogonalLoop=1;jettySize=auto;html=1;" parent="1" source="82BlO1FGrJN9hplA6FB--3" target="82BlO1FGrJN9hplA6FB--5" edge="1">
          <mxGeometry relative="1" as="geometry" />
        </mxCell>
        <mxCell id="82BlO1FGrJN9hplA6FB--3" value="Actor" style="shape=umlActor;verticalLabelPosition=bottom;verticalAlign=top;html=1;outlineConnect=0;" parent="1" vertex="1">
          <mxGeometry x="60" y="320" width="30" height="60" as="geometry" />
        </mxCell>
        <mxCell id="82BlO1FGrJN9hplA6FB--4" value="" style="group" parent="1" vertex="1" connectable="0">
          <mxGeometry x="180" y="100" width="100" height="100" as="geometry" />
        </mxCell>
        <mxCell id="82BlO1FGrJN9hplA6FB--1" value="" style="image;html=1;image=img/lib/clip_art/general/Earth_globe_128x128.png" parent="82BlO1FGrJN9hplA6FB--4" vertex="1">
          <mxGeometry x="10" y="20" width="80" height="80" as="geometry" />
        </mxCell>
        <mxCell id="82BlO1FGrJN9hplA6FB--2" value="" style="html=1;shape=mxgraph.basic.isocube;isoAngle=15;fillColor=none;" parent="82BlO1FGrJN9hplA6FB--4" vertex="1">
          <mxGeometry width="100" height="100" as="geometry" />
        </mxCell>
        <mxCell id="82BlO1FGrJN9hplA6FB--5" value="Galaxy" style="ellipse;shape=cloud;whiteSpace=wrap;html=1;" parent="1" vertex="1">
          <mxGeometry x="280" y="310" width="120" height="80" as="geometry" />
        </mxCell>
        <mxCell id="82BlO1FGrJN9hplA6FB--7" value="Planet generation parameters" style="shape=parallelogram;perimeter=parallelogramPerimeter;whiteSpace=wrap;html=1;fixedSize=1;" parent="1" vertex="1">
          <mxGeometry x="120" y="360" width="120" height="60" as="geometry" />
        </mxCell>
        <mxCell id="82BlO1FGrJN9hplA6FB--35" style="edgeStyle=orthogonalEdgeStyle;rounded=0;orthogonalLoop=1;jettySize=auto;html=1;" parent="1" source="82BlO1FGrJN9hplA6FB--9" target="82BlO1FGrJN9hplA6FB--33" edge="1">
          <mxGeometry relative="1" as="geometry" />
        </mxCell>
        <mxCell id="Ghid3QT_NJFNQLj_4xJU-11" style="edgeStyle=orthogonalEdgeStyle;rounded=0;orthogonalLoop=1;jettySize=auto;html=1;" edge="1" parent="1" source="82BlO1FGrJN9hplA6FB--9" target="Ghid3QT_NJFNQLj_4xJU-9">
          <mxGeometry relative="1" as="geometry" />
        </mxCell>
        <mxCell id="82BlO1FGrJN9hplA6FB--9" value="" style="outlineConnect=0;dashed=0;verticalLabelPosition=bottom;verticalAlign=top;align=center;html=1;shape=mxgraph.aws3.queue;fillColor=#D9A741;gradientColor=none;" parent="1" vertex="1">
          <mxGeometry x="850" y="-204" width="73.5" height="48" as="geometry" />
        </mxCell>
        <mxCell id="82BlO1FGrJN9hplA6FB--10" value="" style="shape=cylinder3;whiteSpace=wrap;html=1;boundedLbl=1;backgroundOutline=1;size=15;" parent="1" vertex="1">
          <mxGeometry x="856.75" y="-55" width="60" height="80" as="geometry" />
        </mxCell>
        <mxCell id="82BlO1FGrJN9hplA6FB--11" value="FACE 2" style="whiteSpace=wrap;html=1;aspect=fixed;" parent="1" vertex="1">
          <mxGeometry x="90" y="-80" width="80" height="80" as="geometry" />
        </mxCell>
        <mxCell id="82BlO1FGrJN9hplA6FB--12" value="FACE 1" style="whiteSpace=wrap;html=1;aspect=fixed;" parent="1" vertex="1">
          <mxGeometry x="170" y="-80" width="80" height="80" as="geometry" />
        </mxCell>
        <mxCell id="82BlO1FGrJN9hplA6FB--13" value="FACE 5" style="whiteSpace=wrap;html=1;aspect=fixed;" parent="1" vertex="1">
          <mxGeometry x="250" y="-80" width="80" height="80" as="geometry" />
        </mxCell>
        <mxCell id="82BlO1FGrJN9hplA6FB--14" value="FACE 4" style="whiteSpace=wrap;html=1;aspect=fixed;" parent="1" vertex="1">
          <mxGeometry x="170" y="-160" width="80" height="80" as="geometry" />
        </mxCell>
        <mxCell id="82BlO1FGrJN9hplA6FB--29" style="edgeStyle=orthogonalEdgeStyle;rounded=0;orthogonalLoop=1;jettySize=auto;html=1;" parent="1" source="82BlO1FGrJN9hplA6FB--15" target="82BlO1FGrJN9hplA6FB--23" edge="1">
          <mxGeometry relative="1" as="geometry">
            <Array as="points">
              <mxPoint x="440" y="-40" />
              <mxPoint x="440" y="-170" />
            </Array>
          </mxGeometry>
        </mxCell>
        <mxCell id="82BlO1FGrJN9hplA6FB--15" value="FACE 6" style="whiteSpace=wrap;html=1;aspect=fixed;" parent="1" vertex="1">
          <mxGeometry x="330" y="-80" width="80" height="80" as="geometry" />
        </mxCell>
        <mxCell id="82BlO1FGrJN9hplA6FB--16" value="FACE 3" style="whiteSpace=wrap;html=1;aspect=fixed;" parent="1" vertex="1">
          <mxGeometry x="170" width="80" height="80" as="geometry" />
        </mxCell>
        <mxCell id="82BlO1FGrJN9hplA6FB--31" style="edgeStyle=orthogonalEdgeStyle;rounded=0;orthogonalLoop=1;jettySize=auto;html=1;" parent="1" source="82BlO1FGrJN9hplA6FB--23" target="82BlO1FGrJN9hplA6FB--30" edge="1">
          <mxGeometry relative="1" as="geometry" />
        </mxCell>
        <mxCell id="82BlO1FGrJN9hplA6FB--23" value="" style="whiteSpace=wrap;html=1;aspect=fixed;" parent="1" vertex="1">
          <mxGeometry x="480" y="-240" width="120" height="120" as="geometry" />
        </mxCell>
        <mxCell id="82BlO1FGrJN9hplA6FB--24" value="" style="endArrow=classic;startArrow=classic;html=1;rounded=0;" parent="1" edge="1">
          <mxGeometry width="50" height="50" relative="1" as="geometry">
            <mxPoint x="480" y="-95.53" as="sourcePoint" />
            <mxPoint x="600" y="-96" as="targetPoint" />
          </mxGeometry>
        </mxCell>
        <mxCell id="82BlO1FGrJN9hplA6FB--25" value="" style="endArrow=none;html=1;rounded=0;entryX=0;entryY=1;entryDx=0;entryDy=0;" parent="1" target="82BlO1FGrJN9hplA6FB--23" edge="1">
          <mxGeometry width="50" height="50" relative="1" as="geometry">
            <mxPoint x="480" y="-85" as="sourcePoint" />
            <mxPoint x="510" y="-105" as="targetPoint" />
          </mxGeometry>
        </mxCell>
        <mxCell id="82BlO1FGrJN9hplA6FB--26" value="" style="endArrow=none;html=1;rounded=0;entryX=1;entryY=1;entryDx=0;entryDy=0;" parent="1" target="82BlO1FGrJN9hplA6FB--23" edge="1">
          <mxGeometry width="50" height="50" relative="1" as="geometry">
            <mxPoint x="600" y="-85" as="sourcePoint" />
            <mxPoint x="600" y="-110" as="targetPoint" />
          </mxGeometry>
        </mxCell>
        <mxCell id="82BlO1FGrJN9hplA6FB--27" value="1024 x 1024" style="text;html=1;align=center;verticalAlign=middle;whiteSpace=wrap;rounded=0;" parent="1" vertex="1">
          <mxGeometry x="493.5" y="-120" width="86.5" height="30" as="geometry" />
        </mxCell>
        <mxCell id="82BlO1FGrJN9hplA6FB--34" style="edgeStyle=orthogonalEdgeStyle;rounded=0;orthogonalLoop=1;jettySize=auto;html=1;" parent="1" source="82BlO1FGrJN9hplA6FB--30" target="82BlO1FGrJN9hplA6FB--9" edge="1">
          <mxGeometry relative="1" as="geometry" />
        </mxCell>
        <mxCell id="82BlO1FGrJN9hplA6FB--30" value="" style="verticalLabelPosition=bottom;verticalAlign=top;html=1;shadow=0;dashed=0;strokeWidth=1;shape=mxgraph.ios.iIconGrid;gridSize=3,3;perimeterSpacing=0;gradientColor=none;fillColor=default;" parent="1" vertex="1">
          <mxGeometry x="680" y="-240" width="119" height="119" as="geometry" />
        </mxCell>
        <mxCell id="82BlO1FGrJN9hplA6FB--32" value="Split by N pieces" style="text;html=1;align=center;verticalAlign=middle;whiteSpace=wrap;rounded=0;" parent="1" vertex="1">
          <mxGeometry x="679" y="-110" width="120" height="30" as="geometry" />
        </mxCell>
        <mxCell id="82BlO1FGrJN9hplA6FB--36" style="edgeStyle=orthogonalEdgeStyle;rounded=0;orthogonalLoop=1;jettySize=auto;html=1;" parent="1" source="82BlO1FGrJN9hplA6FB--33" target="82BlO1FGrJN9hplA6FB--10" edge="1">
          <mxGeometry relative="1" as="geometry" />
        </mxCell>
        <mxCell id="82BlO1FGrJN9hplA6FB--33" value="" style="image;sketch=0;aspect=fixed;html=1;points=[];align=center;fontSize=12;image=img/lib/mscae/Cache_Redis_Product.svg;" parent="1" vertex="1">
          <mxGeometry x="861.75" y="-122" width="50" height="42" as="geometry" />
        </mxCell>
        <mxCell id="Ghid3QT_NJFNQLj_4xJU-6" style="edgeStyle=orthogonalEdgeStyle;rounded=0;orthogonalLoop=1;jettySize=auto;html=1;" edge="1" parent="1" source="Ghid3QT_NJFNQLj_4xJU-1" target="Ghid3QT_NJFNQLj_4xJU-5">
          <mxGeometry relative="1" as="geometry" />
        </mxCell>
        <mxCell id="Ghid3QT_NJFNQLj_4xJU-1" value="" style="sketch=0;pointerEvents=1;shadow=0;dashed=0;html=1;strokeColor=none;fillColor=#505050;labelPosition=center;verticalLabelPosition=bottom;verticalAlign=top;outlineConnect=0;align=center;shape=mxgraph.office.concepts.upload;" vertex="1" parent="1">
          <mxGeometry x="1230.81" y="-7" width="48" height="55" as="geometry" />
        </mxCell>
        <mxCell id="Ghid3QT_NJFNQLj_4xJU-4" value="" style="outlineConnect=0;dashed=0;verticalLabelPosition=bottom;verticalAlign=top;align=center;html=1;shape=mxgraph.aws3.bucket;fillColor=#E05243;gradientColor=none;" vertex="1" parent="1">
          <mxGeometry x="1224.8100000000002" y="-380" width="60" height="61.5" as="geometry" />
        </mxCell>
        <mxCell id="Ghid3QT_NJFNQLj_4xJU-2" value="" style="sketch=0;pointerEvents=1;shadow=0;dashed=0;html=1;strokeColor=none;fillColor=#505050;labelPosition=center;verticalLabelPosition=bottom;verticalAlign=top;outlineConnect=0;align=center;shape=mxgraph.office.devices.hard_disk;" vertex="1" parent="1">
          <mxGeometry x="1250.19" y="-354.5" width="37.03" height="50" as="geometry" />
        </mxCell>
        <mxCell id="Ghid3QT_NJFNQLj_4xJU-14" style="edgeStyle=orthogonalEdgeStyle;rounded=0;orthogonalLoop=1;jettySize=auto;html=1;" edge="1" parent="1" source="Ghid3QT_NJFNQLj_4xJU-5" target="Ghid3QT_NJFNQLj_4xJU-4">
          <mxGeometry relative="1" as="geometry" />
        </mxCell>
        <mxCell id="Ghid3QT_NJFNQLj_4xJU-16" style="edgeStyle=orthogonalEdgeStyle;rounded=0;orthogonalLoop=1;jettySize=auto;html=1;" edge="1" parent="1" source="Ghid3QT_NJFNQLj_4xJU-5" target="Ghid3QT_NJFNQLj_4xJU-18">
          <mxGeometry relative="1" as="geometry">
            <mxPoint x="1390" y="-180" as="targetPoint" />
          </mxGeometry>
        </mxCell>
        <mxCell id="Ghid3QT_NJFNQLj_4xJU-5" value="Galaxy Storage" style="ellipse;shape=cloud;whiteSpace=wrap;html=1;" vertex="1" parent="1">
          <mxGeometry x="1194.81" y="-220.5" width="120" height="80" as="geometry" />
        </mxCell>
        <mxCell id="Ghid3QT_NJFNQLj_4xJU-12" style="edgeStyle=orthogonalEdgeStyle;rounded=0;orthogonalLoop=1;jettySize=auto;html=1;startArrow=classic;startFill=1;" edge="1" parent="1" source="Ghid3QT_NJFNQLj_4xJU-8" target="Ghid3QT_NJFNQLj_4xJU-9">
          <mxGeometry relative="1" as="geometry" />
        </mxCell>
        <mxCell id="Ghid3QT_NJFNQLj_4xJU-13" style="edgeStyle=orthogonalEdgeStyle;rounded=0;orthogonalLoop=1;jettySize=auto;html=1;" edge="1" parent="1" source="Ghid3QT_NJFNQLj_4xJU-8" target="Ghid3QT_NJFNQLj_4xJU-1">
          <mxGeometry relative="1" as="geometry" />
        </mxCell>
        <mxCell id="Ghid3QT_NJFNQLj_4xJU-8" value="" style="sketch=0;points=[[0,0,0],[0.25,0,0],[0.5,0,0],[0.75,0,0],[1,0,0],[0,1,0],[0.25,1,0],[0.5,1,0],[0.75,1,0],[1,1,0],[0,0.25,0],[0,0.5,0],[0,0.75,0],[1,0.25,0],[1,0.5,0],[1,0.75,0]];outlineConnect=0;fontColor=#232F3E;fillColor=#01A88D;strokeColor=#ffffff;dashed=0;verticalLabelPosition=bottom;verticalAlign=top;align=center;html=1;fontSize=12;fontStyle=0;aspect=fixed;shape=mxgraph.aws4.resourceIcon;resIcon=mxgraph.aws4.machine_learning;" vertex="1" parent="1">
          <mxGeometry x="1010" y="-18.5" width="78" height="78" as="geometry" />
        </mxCell>
        <mxCell id="Ghid3QT_NJFNQLj_4xJU-9" value="Galaxy Queue" style="ellipse;shape=cloud;whiteSpace=wrap;html=1;" vertex="1" parent="1">
          <mxGeometry x="989" y="-220.5" width="120" height="80" as="geometry" />
        </mxCell>
        <mxCell id="Ghid3QT_NJFNQLj_4xJU-17" style="edgeStyle=orthogonalEdgeStyle;rounded=0;orthogonalLoop=1;jettySize=auto;html=1;" edge="1" parent="1" source="Ghid3QT_NJFNQLj_4xJU-18" target="Ghid3QT_NJFNQLj_4xJU-21">
          <mxGeometry relative="1" as="geometry" />
        </mxCell>
        <mxCell id="Ghid3QT_NJFNQLj_4xJU-18" value="" style="outlineConnect=0;dashed=0;verticalLabelPosition=bottom;verticalAlign=top;align=center;html=1;shape=mxgraph.aws3.queue;fillColor=#D9A741;gradientColor=none;" vertex="1" parent="1">
          <mxGeometry x="1400" y="-204" width="73.5" height="48" as="geometry" />
        </mxCell>
        <mxCell id="Ghid3QT_NJFNQLj_4xJU-19" value="" style="shape=cylinder3;whiteSpace=wrap;html=1;boundedLbl=1;backgroundOutline=1;size=15;" vertex="1" parent="1">
          <mxGeometry x="1406.75" y="-55" width="60" height="80" as="geometry" />
        </mxCell>
        <mxCell id="Ghid3QT_NJFNQLj_4xJU-20" style="edgeStyle=orthogonalEdgeStyle;rounded=0;orthogonalLoop=1;jettySize=auto;html=1;" edge="1" parent="1" source="Ghid3QT_NJFNQLj_4xJU-21" target="Ghid3QT_NJFNQLj_4xJU-19">
          <mxGeometry relative="1" as="geometry" />
        </mxCell>
        <mxCell id="Ghid3QT_NJFNQLj_4xJU-21" value="" style="image;sketch=0;aspect=fixed;html=1;points=[];align=center;fontSize=12;image=img/lib/mscae/Cache_Redis_Product.svg;" vertex="1" parent="1">
          <mxGeometry x="1411.75" y="-122" width="50" height="42" as="geometry" />
        </mxCell>
        <mxCell id="Ghid3QT_NJFNQLj_4xJU-24" value="" style="image;sketch=0;aspect=fixed;html=1;points=[];align=center;fontSize=12;image=img/lib/mscae/Cache_Redis_Product.svg;" vertex="1" parent="1">
          <mxGeometry x="705" y="190" width="50" height="42" as="geometry" />
        </mxCell>
        <mxCell id="Ghid3QT_NJFNQLj_4xJU-26" value="world id" style="image;html=1;image=img/lib/clip_art/general/Earth_globe_128x128.png" vertex="1" parent="1">
          <mxGeometry x="690" y="290" width="80" height="80" as="geometry" />
        </mxCell>
        <mxCell id="Ghid3QT_NJFNQLj_4xJU-29" value="FACE N&lt;div&gt;face id (n)&lt;/div&gt;" style="whiteSpace=wrap;html=1;aspect=fixed;" vertex="1" parent="1">
          <mxGeometry x="690" y="400" width="80" height="80" as="geometry" />
        </mxCell>
        <mxCell id="Ghid3QT_NJFNQLj_4xJU-30" value="TILE&lt;div&gt;tile XY&lt;/div&gt;" style="whiteSpace=wrap;html=1;aspect=fixed;" vertex="1" parent="1">
          <mxGeometry x="730" y="500" width="40" height="40" as="geometry" />
        </mxCell>
        <mxCell id="Ghid3QT_NJFNQLj_4xJU-32" value="&lt;h1 style=&quot;margin-top: 0px;&quot;&gt;Single file key&lt;/h1&gt;&lt;p&gt;WorldId:TileId:Frag:X:Y&lt;/p&gt;" style="text;html=1;whiteSpace=wrap;overflow=hidden;rounded=0;" vertex="1" parent="1">
          <mxGeometry x="820" y="170" width="180" height="120" as="geometry" />
        </mxCell>
        <mxCell id="Ghid3QT_NJFNQLj_4xJU-33" value="&lt;h1 style=&quot;margin-top: 0px;&quot;&gt;World&lt;/h1&gt;&lt;p&gt;- ID: UUID&lt;/p&gt;&lt;p&gt;- Created: TimeStamp&lt;/p&gt;&lt;p&gt;- ResolutionPerFace: int32&lt;/p&gt;&lt;p&gt;- FaceFragments: int32&lt;/p&gt;" style="text;html=1;whiteSpace=wrap;overflow=hidden;rounded=0;" vertex="1" parent="1">
          <mxGeometry x="1050.81" y="170" width="180" height="160" as="geometry" />
        </mxCell>
        <mxCell id="Ghid3QT_NJFNQLj_4xJU-35" value="" style="shape=cylinder3;whiteSpace=wrap;html=1;boundedLbl=1;backgroundOutline=1;size=15;container=1;" vertex="1" parent="1">
          <mxGeometry x="1194.81" y="160" width="64.75000000000007" height="86.2" as="geometry">
            <mxRectangle x="1215" y="210" width="50" height="40" as="alternateBounds" />
          </mxGeometry>
        </mxCell>
        <mxCell id="Ghid3QT_NJFNQLj_4xJU-34" value="" style="dashed=0;outlineConnect=0;html=1;align=center;labelPosition=center;verticalLabelPosition=bottom;verticalAlign=top;shape=mxgraph.weblogos.mongodb" vertex="1" parent="Ghid3QT_NJFNQLj_4xJU-35">
          <mxGeometry x="42.67000000000007" y="40" width="22.08" height="46.2" as="geometry" />
        </mxCell>
        <mxCell id="Ghid3QT_NJFNQLj_4xJU-36" value="&lt;h1 style=&quot;margin-top: 0px;&quot;&gt;Example: World #1&lt;/h1&gt;&lt;p&gt;- ID: 3389e245-1965-473d-9a24-1daefe014128&lt;/p&gt;&lt;p&gt;- Created: 2025/03/25&lt;/p&gt;&lt;p&gt;- ResolutionPerFace: 1024&lt;/p&gt;&lt;p&gt;- FaceFragments: 32 // &amp;lt;- this should be pow of 2&lt;/p&gt;" style="text;html=1;whiteSpace=wrap;overflow=hidden;rounded=0;" vertex="1" parent="1">
          <mxGeometry x="1088" y="340" width="292" height="160" as="geometry" />
        </mxCell>
      </root>
    </mxGraphModel>
  </diagram>
</mxfile>
